<svg xmlns="http://www.w3.org/2000/svg" width="87.938" height="87.938" viewBox="0 0 87.938 87.938">
<defs>
    <style>
      .cls-1 {
        fill: #fff;
        fill-rule: evenodd;
      }
    </style>
  </defs>
  <path class="cls-1" d="M775.006,616.019a43.981,43.981,0,1,0,43.975,43.986,44,44,0,0,0-43.975-43.986h0Zm0,4.475a39.527,39.527,0,0,1,35.52,22.264v0.086a13.293,13.293,0,0,1,.074,1.437,8.853,8.853,0,0,1,1.123,1.2,39.878,39.878,0,0,1,2,7.1,2.514,2.514,0,0,1-1.683.647c-4.079-3.215-.088,3.531,2.157,2.309a40.722,40.722,0,0,1,.325,4.476,39.167,39.167,0,0,1-9.5,25.542,5.855,5.855,0,0,1,.162-1.047c2.744-3.329,2.233-9.9-3.355-9.179-2.906,2.283-6.934,5.213-10.463,1.845-3.68-3.316-1.971-8.8.087-12.531,2.058-3,2.731-7.424,6.385-8.944,3.605,0.825,8.02.575,9.342-3.827,1.122-1.974.486-2.635-.562-3.12a1.443,1.443,0,0,1-.236-0.073c-1.2-.5-2.719-0.9-2.882-2.635,1.073-1.844-1.2-5.621-2.07-2.243,1.858,2.106,2.282,8.431-2.157,6.075,1.583,2.532-5.725.909-4.315,4.463,1.159,3.867-6.6,6.051-4.39,1.125,1.247-3.631-.574-9.081,2.643-11.415-0.037-.111.287-0.6,0.15-0.086a3.206,3.206,0,0,1,.324-0.237c2.806-1.935-3.567-7.745-3.193-4.153,2.744,1.434,1.235,4.329-1.434,2.881-2.806-1.384-3.828-9.078.075-8.541,2.943,0.386.137-2.721-1.2-4.231-0.137.7-.349-0.138-0.237-0.236-0.062-.075-0.187-0.185-0.25-0.249,0.375-4.627-7.333-.576-8.617-4.7-4.852-2.406-10.4-2.543-15.8-2.156a38.852,38.852,0,0,1,6.386-1.361l0.636-.075c0.6-.062,1.209-0.139,1.758-0.237,1.048-.087,2.12-0.164,3.193-0.164h0.012Zm-16.525,5.265c5.513,1.833-2.793,7.67,1.36,9.977a2.693,2.693,0,0,1,1.11.237c0.112-.112.149-0.051,0.162,0.086,1.858,0.862,2.257,3.519-.8,3.344-4.228-1.2-5.9,7.831-1.759,6.71,1.522-4.253,6.111-2.457,6.947,1.272,2.469,3.84-2.582,3.805-4.315,5.436,1.746,3.146-3.068,1.486-4.864,3.034-3.442.759-4.5,5.986-7.508,6.145-0.125-5.472-9.242-3.626-7.745,1.349,1.945,1.521,4.539,3.093,4.153,6.31-0.15,6.785,8.194,4.554,11.9,8.146,4.552,2,7.47,6.1,11.486,8.78,3.48-1.185,9.915,2.12,6.473,6.3a27.575,27.575,0,0,1-6.947,3.754v0.086a18.682,18.682,0,0,1-4.714,1.039,39.267,39.267,0,0,1-8.693-3.918c-0.012-.025.013-0.052,0-0.073-1.234-3.592-4.539-5.814-6.784-8.707a4.745,4.745,0,0,1-1.285-3.9c0.025-.01-0.025-0.074,0-0.086,0.15-2.3.96-4.689-.711-6.785-2.606-4.353-5.886-8.342-7.583-13.17-0.187-4.987-.461-9.776,1.2-14.529,3.692-7.583,12.9-15.677,18.919-20.828h0Zm11.736,6.15a1.791,1.791,0,0,1,.474.073c0.96,0,.636,1.073,0,1.36-2.27,2.133-2.831-.986-0.96-1.36a2.834,2.834,0,0,1,.486-0.073h0Zm3.106,0.709a3.182,3.182,0,0,1,3.753,2.395c1.148,4.577-3.417,7.534-5.113,11.264-4.2-1.176.237-5.814-1.6-8.071-2.519-2.607.224-5.237,2.956-5.588h0Zm-8.219,4.553c2.656-.163,2.145,5.712-0.075,6.622-1.946-1.782.611-4.4-.487-6.46a2.938,2.938,0,0,1,.562-0.162h0Zm22.91,9.416c0.873-.049,2.819.848,2.632,2.084-0.836,1.408-3.193,1.283-2.32-.8-0.948-.887-0.836-1.249-0.312-1.286h0Zm-22.985,6.075c1.035-.189,3.268.6,1.2,1.832,0.661-.7-0.486-0.437-0.648-0.4-1.335-.923-1.185-1.321-0.549-1.433h0Zm-8.381,3.266c0.287,0.039-.1.424-0.487,0.326h-0.074a0.683,0.683,0,0,1-.162-0.164,1.648,1.648,0,0,1,.723-0.162h0Zm-8.144,11.1a1.747,1.747,0,0,1,.636,0,3.9,3.9,0,0,1,.724.159,0.146,0.146,0,0,0,0,.077,1.607,1.607,0,0,1,1.271,2.07,1.644,1.644,0,0,1-1.758-.709c-1.434-.887-1.409-1.447-0.873-1.6h0Z" transform="translate(-731.031 -616.031)"/>
</svg>
