<svg xmlns="http://www.w3.org/2000/svg" width="63.063" height="69" viewBox="0 0 63.063 69">
  <defs>
    <style>
      .cls-1 {
      fill: #fff;
      fill-rule: evenodd;
      }
    </style>
  </defs>
  <path class="cls-1" d="M544.642,632.282q-1.08,2.347-2.61,6.219c-1.028,2.583-2.1,5.359-3.248,8.332s-2.266,6-3.374,9.058-2.121,5.83-3.021,8.288-1.923,5.259-3.066,8.382a17.946,17.946,0,0,1-1.62,2.926A3.071,3.071,0,0,1,525,676.8h-31.17a3.376,3.376,0,0,1-2.839-1.353,8.676,8.676,0,0,1-1.486-2.882l-7.3-27.3a3.853,3.853,0,0,1,.315-3.062q0.762-1.265,4.006-1.262h45.953l5.411-11.711a3.465,3.465,0,0,1,2.252-2.077,3.948,3.948,0,0,1,2.7.229,4.089,4.089,0,0,1,1.943,1.889A3.284,3.284,0,0,1,544.642,632.282ZM504.1,689.5a6.478,6.478,0,0,1-6.489,6.488,6.367,6.367,0,0,1-4.686-1.895,6.251,6.251,0,0,1-1.891-4.593,6.422,6.422,0,0,1,1.891-4.643,6.3,6.3,0,0,1,4.686-1.936,6.176,6.176,0,0,1,4.589,1.936A6.427,6.427,0,0,1,504.1,689.5Zm22.613,0a6.462,6.462,0,0,1-6.487,6.488,6.362,6.362,0,0,1-4.686-1.895,6.25,6.25,0,0,1-1.894-4.593,6.421,6.421,0,0,1,1.894-4.643,6.291,6.291,0,0,1,4.686-1.936,6.2,6.2,0,0,1,4.6,1.936A6.421,6.421,0,0,1,526.712,689.5Z" transform="translate(-482.031 -627)"/>
</svg>
