<svg xmlns="http://www.w3.org/2000/svg" width="53" height="75.719" viewBox="0 0 53 75.719">
<defs>
    <style>
      .cls-1 {
        fill: #fff;
        fill-rule: evenodd;
      }
    </style>
  </defs>
  <path class="cls-1" d="M267.94,696H227.048a6.057,6.057,0,0,1-6.057-6.058V626.329a6.058,6.058,0,0,1,6.057-6.058H267.94A6.058,6.058,0,0,1,274,626.329v63.608A6.057,6.057,0,0,1,267.94,696Zm-20.635-1.7a4.827,4.827,0,1,0-4.828-4.827A4.828,4.828,0,0,0,247.305,694.291Zm7.951-71.748h-15.9a0.947,0.947,0,1,0,0,1.893h15.9A0.947,0.947,0,0,0,255.256,622.543Zm14.766,4.165H224.4v55.846h45.624V626.708Zm-23.779,60.484h2.34a1.153,1.153,0,0,1,1.153,1.151v2.523a1.153,1.153,0,0,1-1.153,1.151h-2.34a1.152,1.152,0,0,1-1.153-1.151v-2.523A1.152,1.152,0,0,1,246.243,687.192Z" transform="translate(-221 -620.281)"/>
</svg>
