<svg xmlns="http://www.w3.org/2000/svg" width="55" height="55" viewBox="0 0 55 55">
  <path class="cls-1" d="M669.5,281.011A27.489,27.489,0,1,0,696.988,308.5,27.5,27.5,0,0,0,669.5,281.011h0Zm0,2.8a24.7,24.7,0,0,1,22.2,13.914v0.054a8.132,8.132,0,0,1,.047.9,5.611,5.611,0,0,1,.7.749,24.9,24.9,0,0,1,1.247,4.434,1.574,1.574,0,0,1-1.052.4c-2.549-2.009-.055,2.207,1.348,1.443a25.511,25.511,0,0,1,.2,2.8,24.482,24.482,0,0,1-5.94,15.964,3.62,3.62,0,0,1,.1-0.654c1.714-2.082,1.395-6.189-2.1-5.737-1.817,1.426-4.334,3.258-6.54,1.152-2.3-2.072-1.232-5.5.054-7.831,1.286-1.872,1.708-4.64,3.991-5.59,2.253,0.515,5.012.359,5.839-2.392,0.7-1.234.3-1.647-.351-1.95a0.854,0.854,0,0,1-.148-0.046c-0.748-.314-1.7-0.563-1.8-1.646,0.671-1.153-.748-3.514-1.294-1.4,1.162,1.317,1.427,5.27-1.348,3.8,0.99,1.582-3.578.567-2.7,2.789,0.725,2.417-4.124,3.781-2.744.7,0.78-2.27-.358-5.676,1.653-7.135-0.024-.069.179-0.373,0.093-0.053a1.884,1.884,0,0,1,.2-0.148c1.753-1.21-2.23-4.841-2-2.6,1.715,0.9.772,2.706-.9,1.8-1.754-.866-2.393-5.674.046-5.339,1.84,0.242.086-1.7-.748-2.644-0.085.437-.218-0.086-0.148-0.147-0.039-.047-0.117-0.116-0.156-0.156,0.234-2.892-4.583-.36-5.386-2.939-3.032-1.5-6.5-1.589-9.876-1.347a24.231,24.231,0,0,1,3.991-.851l0.4-.047c0.374-.039.756-0.086,1.1-0.148,0.654-.055,1.325-0.1,2-0.1H669.5Zm-10.328,3.29c3.445,1.146-1.746,4.794.849,6.236a1.664,1.664,0,0,1,.694.148c0.07-.07.094-0.032,0.1,0.054,1.162,0.539,1.411,2.2-.5,2.09-2.643-.749-3.687,4.894-1.1,4.193,0.952-2.658,3.82-1.535,4.342.8,1.544,2.4-1.613,2.379-2.7,3.4,1.091,1.966-1.917.929-3.04,1.9-2.151.475-2.814,3.741-4.692,3.841-0.078-3.42-5.776-2.267-4.841.843,1.216,0.95,2.838,1.933,2.6,3.944-0.094,4.24,5.121,2.846,7.436,5.091,2.845,1.247,4.669,3.811,7.179,5.487,2.175-.74,6.2,1.325,4.046,3.936a17.256,17.256,0,0,1-4.342,2.346v0.054a11.622,11.622,0,0,1-2.946.648,24.482,24.482,0,0,1-5.433-2.448c-0.008-.016.007-0.032,0-0.046-0.772-2.245-2.838-3.633-4.241-5.442a2.965,2.965,0,0,1-.8-2.44c0.016-.006-0.015-0.046,0-0.054,0.094-1.434.6-2.931-.444-4.24-1.629-2.721-3.679-5.214-4.739-8.232-0.117-3.117-.289-6.11.748-9.081,2.307-4.739,8.06-9.8,11.825-13.017h0Zm7.335,3.844a1.071,1.071,0,0,1,.3.046c0.6,0,.4.67,0,0.849-1.419,1.333-1.769-.615-0.6-0.849a1.717,1.717,0,0,1,.3-0.046h0Zm1.941,0.443a1.99,1.99,0,0,1,2.346,1.5c0.717,2.861-2.136,4.709-3.2,7.04-2.627-.735.148-3.634-1-5.045-1.574-1.629.141-3.273,1.848-3.492h0Zm-5.137,2.845c1.66-.1,1.341,3.57-0.047,4.139-1.216-1.113.382-2.752-.3-4.037a1.927,1.927,0,0,1,.351-0.1h0Zm14.319,5.885c0.545-.03,1.761.531,1.645,1.3-0.523.88-2,.8-1.45-0.5-0.593-.554-0.523-0.78-0.195-0.8h0Zm-14.366,3.8c0.647-.119,2.042.373,0.748,1.144,0.413-.436-0.3-0.273-0.4-0.249-0.834-.577-0.741-0.825-0.343-0.9h0Zm-5.238,2.041c0.179,0.024-.062.265-0.3,0.2h-0.047a0.431,0.431,0,0,1-.1-0.1,1.018,1.018,0,0,1,.452-0.1h0Zm-5.09,6.938a1.092,1.092,0,0,1,.4,0,2.434,2.434,0,0,1,.453.1,0.088,0.088,0,0,0,0,.047,1.006,1.006,0,0,1,.8,1.294,1.026,1.026,0,0,1-1.1-.443c-0.9-.555-0.881-0.9-0.546-1h0Z" transform="translate(-642 -281)"/>
</svg>
