<svg xmlns="http://www.w3.org/2000/svg" width="65.406" height="79" viewBox="0 0 65.406 79">
<defs>
    <style>
      .cls-1 {
        fill: #fff;
        fill-rule: evenodd;
      }
    </style>
  </defs>
  <path class="cls-1" d="M553.614,1435.01c-10.118.89-17.653,9.31-15.908,19.21C548.293,1453.24,553.1,1446.32,553.614,1435.01Zm15.908,25.94c-8.723-13.64-22.836-3.78-29.944-3.85-5.509-.05-8.93-4.16-14.972-3.84-29.21,1.54-19.97,57.06,0,60.53,5.239,0.91,9.4-2.96,15.908-2.89,6.294,0.08,8.859,4.03,14.971,2.89,8.6-1.61,10.549-12.25,15.908-19.22C561.116,1489.04,556.006,1468.38,569.522,1460.95Z" transform="translate(-506 -1435)"/>
</svg>
