<svg xmlns="http://www.w3.org/2000/svg" width="26.5" height="29" viewBox="0 0 26.5 29">
<defs>
    <style>
      .cls-1 {
        fill: #fff;
        fill-rule: evenodd;
      }
    </style>
  </defs>
  <path class="cls-1" d="M684.328,493.22q-0.455.986-1.1,2.614t-1.365,3.5q-0.719,1.875-1.418,3.807t-1.27,3.484q-0.57,1.554-1.289,3.523a7.51,7.51,0,0,1-.681,1.229,1.288,1.288,0,0,1-1.138.551h-13.1a1.42,1.42,0,0,1-1.193-.569,3.635,3.635,0,0,1-.625-1.211l-3.067-11.476a1.618,1.618,0,0,1,.132-1.286,1.9,1.9,0,0,1,1.684-.531h19.314l2.274-4.922a1.454,1.454,0,0,1,.946-0.873,1.663,1.663,0,0,1,1.134.1,1.725,1.725,0,0,1,.816.794A1.38,1.38,0,0,1,684.328,493.22Zm-17.04,24.048A2.725,2.725,0,0,1,664.56,520a2.671,2.671,0,0,1-1.969-.8,2.626,2.626,0,0,1-.795-1.93,2.7,2.7,0,0,1,.795-1.951,2.644,2.644,0,0,1,1.969-.814,2.594,2.594,0,0,1,1.929.814A2.7,2.7,0,0,1,667.288,517.268Zm9.5,0A2.716,2.716,0,0,1,674.066,520a2.671,2.671,0,0,1-1.97-.8,2.627,2.627,0,0,1-.8-1.93,2.7,2.7,0,0,1,.8-1.951,2.643,2.643,0,0,1,1.97-.814,2.605,2.605,0,0,1,1.932.814A2.7,2.7,0,0,1,676.792,517.268Z" transform="translate(-658 -491)"/>
</svg>
