<svg xmlns="http://www.w3.org/2000/svg" width="220.121" height="219.68" viewBox="0 0 220.121 219.68">
<defs>
    <style>
      .cls-1 {
        fill: #fff;
        fill-rule: evenodd;
      }
    </style>
  </defs>
  <path class="cls-1" d="M1150.06,2453.79a6.966,6.966,0,0,1-4.91,2.03h-79.99a6.928,6.928,0,0,1-4.91-2.03,7.078,7.078,0,0,1-1.51-2.24,6.932,6.932,0,0,1,1.51-7.57l24.43-18.28-36.06-36.06,0.01-.01c-0.08-.08-0.17-0.14-0.25-0.23a26.368,26.368,0,0,1,37.29-37.29l0.23,0.26,0.01-.01,36.06,36.06,18.27-24.43a6.94,6.94,0,0,1,11.85,4.91v79.98A7.009,7.009,0,0,1,1150.06,2453.79ZM998.374,2339.82c-0.086-.08-0.152-0.17-0.233-0.25l-0.01.01-36.059-36.06L943.8,2327.95a6.939,6.939,0,0,1-11.842-4.91v-79.99a6.99,6.99,0,0,1,2.024-4.91,7.063,7.063,0,0,1,4.913-2.03h79.989a6.937,6.937,0,0,1,4.91,2.04,7.078,7.078,0,0,1,1.51,2.24,6.932,6.932,0,0,1-1.51,7.57l-24.432,18.27,36.062,36.06-0.01.01c0.08,0.08.17,0.15,0.25,0.23A26.367,26.367,0,1,1,998.374,2339.82Z" transform="translate(-931.969 -2236.13)"/>
</svg>
