<svg xmlns="http://www.w3.org/2000/svg" width="26.5" height="29" viewBox="0 0 26.5 29">
  <metadata><?xpacket begin="﻿" id="W5M0MpCehiHzreSzNTczkc9d"?>
<x:xmpmeta xmlns:x="adobe:ns:meta/" x:xmptk="Adobe XMP Core 5.6-c138 79.159824, 2016/09/14-01:09:01        ">
   <rdf:RDF xmlns:rdf="http://www.w3.org/1999/02/22-rdf-syntax-ns#">
      <rdf:Description rdf:about=""/>
   </rdf:RDF>
</x:xmpmeta>
                                                                                                    
                                                                                                    
                                                                                                    
                                                                                                    
                                                                                                    
                                                                                                    
                                                                                                    
                                                                                                    
                                                                                                    
                                                                                                    
                                                                                                    
                                                                                                    
                                                                                                    
                                                                                                    
                                                                                                    
                                                                                                    
                                                                                                    
                                                                                                    
                                                                                                    
                                                                                                    
                           
<?xpacket end="w"?></metadata>
<defs>
    <style>
      .cls-1 {
        fill: #fff;
        fill-rule: evenodd;
      }
    </style>
  </defs>
  <path id="Shape_4_copy" data-name="Shape 4 copy" class="cls-1" d="M770.328,1838.22q-0.455.99-1.1,2.61-0.648,1.635-1.365,3.51c-0.479,1.25-.952,2.51-1.418,3.8s-0.892,2.45-1.27,3.49-0.808,2.21-1.289,3.52a7.914,7.914,0,0,1-.681,1.23,1.3,1.3,0,0,1-1.138.55h-13.1a1.418,1.418,0,0,1-1.193-.57,3.64,3.64,0,0,1-.625-1.21l-3.067-11.48a1.6,1.6,0,0,1,.132-1.28,1.891,1.891,0,0,1,1.684-.53h19.314l2.274-4.93a1.444,1.444,0,0,1,.946-0.87,1.629,1.629,0,0,1,1.134.1,1.712,1.712,0,0,1,.816.79A1.382,1.382,0,0,1,770.328,1838.22Zm-17.04,24.05a2.73,2.73,0,0,1-2.728,2.73,2.678,2.678,0,0,1-1.969-.8,2.622,2.622,0,0,1-.795-1.93,2.757,2.757,0,0,1,2.764-2.77,2.607,2.607,0,0,1,1.929.82A2.683,2.683,0,0,1,753.288,1862.27Zm9.5,0a2.721,2.721,0,0,1-2.726,2.73,2.677,2.677,0,0,1-1.97-.8,2.623,2.623,0,0,1-.8-1.93,2.684,2.684,0,0,1,.8-1.95,2.656,2.656,0,0,1,1.97-.82,2.618,2.618,0,0,1,1.932.82A2.683,2.683,0,0,1,762.792,1862.27Z" transform="translate(-744 -1836)"/>
</svg>
