<svg xmlns="http://www.w3.org/2000/svg" width="65.28" height="64.125" viewBox="0 0 65.28 64.125">
<defs>
    <style>
      .cls-1 {
        fill: #fff;
        fill-rule: evenodd;
        opacity: 0.53;
      }
    </style>
  </defs>
  <path class="cls-1" d="M953.084,128.885h58.626a3.338,3.338,0,0,1,3.34,3.331v47.8a3.339,3.339,0,0,1-3.34,3.331H953.084a3.332,3.332,0,0,1-3.332-3.331v-47.8A3.331,3.331,0,0,1,953.084,128.885Zm3.164,3.5h52.3a3.331,3.331,0,0,1,3.33,3.332v32.48a3.33,3.33,0,0,1-3.33,3.331h-52.3a3.331,3.331,0,0,1-3.331-3.331v-32.48A3.331,3.331,0,0,1,956.248,132.382Zm17.67,50.894s1.1,6.342-3.129,8.54V193h23.167v-1.184s-2.959-2.705-3.044-8.54S975.1,179.641,973.918,183.276Zm8.032-6.721a1.041,1.041,0,0,0-1.649.423,2.549,2.549,0,0,0,.719,2.542,1.413,1.413,0,0,0,1.068.109,1.371,1.371,0,0,0,1.142-.031,8.362,8.362,0,0,0,.6-1.023,1.152,1.152,0,0,1-.1-1.793,0.806,0.806,0,0,0-.627-0.452A2.666,2.666,0,0,0,981.95,176.555Zm0.069-.479a1.073,1.073,0,0,0,1.093-.618A0.778,0.778,0,0,0,982.019,176.076Z" transform="translate(-949.75 -128.875)"/>
</svg>
