<svg xmlns="http://www.w3.org/2000/svg" width="43.16" height="66.375" viewBox="0 0 43.16 66.375">
    <style>
      .cls-1 {
        fill: #fff;
        fill-rule: evenodd;
        opacity: 0.53;
      }
    </style>
  </defs>
  <path class="cls-1" d="M1083.24,127.453h36.37a3.38,3.38,0,0,1,3.38,3.384V190.47a3.379,3.379,0,0,1-3.38,3.383h-36.37a3.388,3.388,0,0,1-3.39-3.383V130.837A3.388,3.388,0,0,1,1083.24,127.453Zm-0.85,7.049h38.06v52.867h-38.06V134.5Zm19.46-3.806a0.564,0.564,0,1,1-.57.564A0.561,0.561,0,0,1,1101.85,130.7Zm-0.36,58.27a1.716,1.716,0,1,1-1.71,1.716A1.718,1.718,0,0,1,1101.49,188.966Z" transform="translate(-1079.84 -127.469)"/>
</svg>
