<svg xmlns="http://www.w3.org/2000/svg" width="29.28" height="55.343" viewBox="0 0 29.28 55.343">
<defs>
    <style>
      .cls-1 {
        fill: #fff;
        fill-rule: evenodd;
        opacity: 0.53;
      }
    </style>
  </defs>
  <path class="cls-1" d="M1210.67,138.316h20.26a4.507,4.507,0,0,1,4.51,4.5v46.34a4.507,4.507,0,0,1-4.51,4.5h-20.26a4.5,4.5,0,0,1-4.5-4.5v-46.34A4.5,4.5,0,0,1,1210.67,138.316Zm-2.06,7.692h24.76v38.835h-24.76V146.008Zm8.88-4.128h6.75a0.688,0.688,0,1,1,0,1.376h-6.75A0.688,0.688,0,1,1,1217.49,141.88Zm3.5,45.152a2.064,2.064,0,1,1-2.06,2.064A2.069,2.069,0,0,1,1220.99,187.032Z" transform="translate(-1206.16 -138.313)"/>
</svg>
