<svg xmlns="http://www.w3.org/2000/svg" width="55.344" height="73.25" viewBox="0 0 55.344 73.25">
<defs>
    <style>
      .cls-1 {
        fill: #fff;
        fill-rule: evenodd;
      }
    </style>
  </defs>
  <path class="cls-1" d="M992.4,1506.03a6.426,6.426,0,0,1-4.73,1.96H945.7a6.68,6.68,0,0,1-6.691-6.69v-31.17a6.68,6.68,0,0,1,6.691-6.69h0.288v-6.97a22.473,22.473,0,0,1,1.571-8.37,21.474,21.474,0,0,1,4.4-6.93,20.853,20.853,0,0,1,6.59-4.68,19.951,19.951,0,0,1,16.253,0,20.8,20.8,0,0,1,6.6,4.68,21.453,21.453,0,0,1,4.4,6.93,22.321,22.321,0,0,1,1.579,8.37v6.97h0.289a6.69,6.69,0,0,1,6.689,6.69v31.17A6.427,6.427,0,0,1,992.4,1506.03Zm-12.854-49.56a14.435,14.435,0,0,0-1.058-5.55,14,14,0,0,0-2.816-4.44,12.869,12.869,0,0,0-4.108-2.92,12.073,12.073,0,0,0-9.849,0,12.179,12.179,0,0,0-4.062,2.92,14.33,14.33,0,0,0-2.778,4.44,14.581,14.581,0,0,0-1.05,5.55v6.97H979.64Zm-6.217,22.18a6.054,6.054,0,0,0-1.867-4.45,6.13,6.13,0,0,0-4.535-1.86,6.351,6.351,0,0,0-6.31,6.31,5.886,5.886,0,0,0,2.3,4.87l-1.914,15h11.95l-1.913-15A5.891,5.891,0,0,0,973.329,1478.65Z" transform="translate(-939 -1434.75)"/>
</svg>
