<svg xmlns="http://www.w3.org/2000/svg" width="77.062" height="70.22" viewBox="0 0 77.062 70.22">
<defs>
    <style>
      .cls-1 {
        fill: #fff;
        fill-rule: evenodd;
      }
    </style>
  </defs>
  <path class="cls-1" d="M749.366,1439.02a5.578,5.578,0,0,0-5.521,4.52H743.7l-18.122,20.4h9.061l12.535-14.09a5.752,5.752,0,0,0,2.19.5,5.826,5.826,0,0,0,2.2-.5l12.521,14.09h9.075l-18.135-20.4h-0.145a5.553,5.553,0,0,0-5.519-4.52h0Zm-32.845,29.45a4.525,4.525,0,0,0-4.538,4.53v2.27a4.477,4.477,0,0,0,4.184,4.46l7.145,24.99c2.268,4.54,4.538,4.54,6.791,4.54H770.9c2.27,0,4.523,0,6.793-4.54l7.159-24.99a4.476,4.476,0,0,0,4.169-4.46V1473a4.514,4.514,0,0,0-4.523-4.53H716.521Zm12.745,11.33h1.127a5.833,5.833,0,0,1,5.52,4.24l3.186,14.1a3.452,3.452,0,0,1-3.606,4.31h-1.141a5.877,5.877,0,0,1-5.519-4.31l-3.187-14.1a3.417,3.417,0,0,1,3.62-4.24h0Zm21.241,0a4.514,4.514,0,0,1,4.523,4.53v13.6a4.53,4.53,0,0,1-9.06,0v-13.6a4.524,4.524,0,0,1,4.537-4.53h0Zm20.1,0h1.141a3.409,3.409,0,0,1,3.6,4.24l-3.186,14.1a5.874,5.874,0,0,1-5.52,4.31h-1.141a3.454,3.454,0,0,1-3.605-4.31l3.186-14.1a5.835,5.835,0,0,1,5.52-4.24h0Z" transform="translate(-711.969 -1439.03)"/>
</svg>
